<svg width="18" height="18" viewBox="0 0 18 18" fill="none" xmlns="http://www.w3.org/2000/svg">
<path fill-rule="evenodd" clip-rule="evenodd" d="M2.07178 2.93596C2.07178 2.54316 2.39021 2.22473 2.78301 2.22473H7.76164C8.15445 2.22473 8.47288 2.54316 8.47288 2.93596V9.33706C8.47288 9.72987 8.15445 10.0483 7.76164 10.0483H2.78301C2.39021 10.0483 2.07178 9.72987 2.07178 9.33706V2.93596ZM3.49424 3.6472V8.62583H7.05041V3.6472H3.49424Z" fill="#D3E7FF"/>
<path fill-rule="evenodd" clip-rule="evenodd" d="M9.89526 2.93596C9.89526 2.54316 10.2137 2.22473 10.6065 2.22473H15.5851C15.9779 2.22473 16.2964 2.54316 16.2964 2.93596V6.49213C16.2964 6.88493 15.9779 7.20336 15.5851 7.20336H10.6065C10.2137 7.20336 9.89526 6.88493 9.89526 6.49213V2.93596ZM11.3177 3.6472V5.7809H14.8739V3.6472H11.3177Z" fill="#D3E7FF"/>
<path fill-rule="evenodd" clip-rule="evenodd" d="M9.89526 9.33709C9.89526 8.94428 10.2137 8.62585 10.6065 8.62585H15.5851C15.9779 8.62585 16.2964 8.94428 16.2964 9.33709V15.7382C16.2964 16.131 15.9779 16.4494 15.5851 16.4494H10.6065C10.2137 16.4494 9.89526 16.131 9.89526 15.7382V9.33709ZM11.3177 10.0483V15.027H14.8739V10.0483H11.3177Z" fill="#D3E7FF"/>
<path fill-rule="evenodd" clip-rule="evenodd" d="M2.07178 12.1819C2.07178 11.7891 2.39021 11.4707 2.78301 11.4707H7.76164C8.15445 11.4707 8.47288 11.7891 8.47288 12.1819V15.7381C8.47288 16.1309 8.15445 16.4493 7.76164 16.4493H2.78301C2.39021 16.4493 2.07178 16.1309 2.07178 15.7381V12.1819ZM3.49424 12.8932V15.0269H7.05041V12.8932H3.49424Z" fill="#D3E7FF"/>
</svg>
