<svg width="33" height="33" viewBox="0 0 33 33" fill="none" xmlns="http://www.w3.org/2000/svg">
<path d="M31.7104 0.48291H2.25129C1.54283 0.48291 0.970459 1.05528 0.970459 1.76374V31.2229C0.970459 31.9313 1.54283 32.5037 2.25129 32.5037H31.7104C32.4189 32.5037 32.9912 31.9313 32.9912 31.2229V1.76374C32.9912 1.05528 32.4189 0.48291 31.7104 0.48291ZM28.012 9.82897H25.4543C23.449 9.82897 23.0608 10.7816 23.0608 12.1825V15.2685H27.8479L27.2235 20.0996H23.0608V32.5037H18.0696V20.1036H13.8948V15.2685H18.0696V11.7062C18.0696 7.57151 20.5952 5.31805 24.2856 5.31805C26.0547 5.31805 27.5717 5.45013 28.016 5.51017V9.82897H28.012Z" fill="white"/>
</svg>
