<svg width="42" height="20" viewBox="0 0 42 20" fill="none" xmlns="http://www.w3.org/2000/svg">
<path d="M32.275 0.332491C29.815 0.332491 27.4917 1.32134 25.8346 3.03416L13.825 14.0527C12.7317 15.1828 11.2796 15.8009 9.725 15.8009C6.53042 15.8009 3.91667 13.1345 3.91667 9.83247C3.91667 6.53043 6.53042 3.86408 9.725 3.86408C11.2796 3.86408 12.7317 4.48211 13.8933 5.68285L15.8238 7.44865L18.4375 5.08248L16.2508 3.12245C15.3953 2.23483 14.3782 1.53126 13.2581 1.05239C12.1379 0.573516 10.9371 0.328837 9.725 0.332491C4.63417 0.332491 0.5 4.60572 0.5 9.83247C0.5 15.0592 4.63417 19.3325 9.725 19.3325C12.185 19.3325 14.5083 18.3436 16.1654 16.6308L28.175 5.61222C29.2683 4.48211 30.7204 3.86408 32.275 3.86408C35.4696 3.86408 38.0833 6.53043 38.0833 9.83247C38.0833 13.1345 35.4696 15.8009 32.275 15.8009C30.7375 15.8009 29.2683 15.1828 28.1067 13.9821L26.125 12.1986L23.5625 14.5648L25.7492 16.5425C26.607 17.4257 27.625 18.1252 28.7448 18.6009C29.8646 19.0766 31.0643 19.3192 32.275 19.3148C37.3658 19.3148 41.5 15.0592 41.5 9.83247C41.5 4.53509 37.3658 0.332491 32.275 0.332491Z" fill="#7B8BF4"/>
</svg>
