<svg width="30" height="31" viewBox="0 0 30 31" fill="none" xmlns="http://www.w3.org/2000/svg">
<path d="M12.5495 14.2275C14.0285 16.6875 13.811 19.5825 12.042 20.7525C10.273 21.8925 7.634 20.8274 6.1405 18.3675C4.6615 15.9075 4.8935 12.9825 6.6625 11.8425C8.4315 10.7025 11.0705 11.7675 12.5495 14.2275ZM15 24.4575C17.9 24.4575 18.625 23.3325 18.625 23.3325C18.625 23.3325 17.9 26.3325 15 26.3325C12.1 26.3325 11.375 23.3775 11.375 23.3325C11.375 23.3325 12.1 24.4575 15 24.4575ZM23.3375 11.8425C25.1065 12.9825 25.3385 15.9075 23.8595 18.3675C22.366 20.8274 19.727 21.8925 17.958 20.7525C16.189 19.5825 15.9715 16.6875 17.4505 14.2275C18.9295 11.7675 21.5685 10.7025 23.3375 11.8425ZM15 27.8325C18.625 27.8325 26.6 20.1224 26.6 14.3325C26.6 8.54245 21.3945 3.83245 15 3.83245C8.6055 3.83245 3.4 8.54245 3.4 14.3325C3.4 20.1224 11.375 27.8325 15 27.8325ZM15 0.832451C22.975 0.832451 29.5 6.89245 29.5 14.3325C29.5 20.4524 21.264 30.8325 15 30.8325C8.736 30.8325 0.5 20.4524 0.5 14.3325C0.5 6.89245 7.025 0.832451 15 0.832451Z" fill="#7B8BF4"/>
</svg>
