<svg width="26" height="24" viewBox="0 0 26 24" fill="none" xmlns="http://www.w3.org/2000/svg">
<path d="M7.39929 13.6089L11.1726 9.83554L2.91929 1.59554C2.27929 0.955542 1.17262 1.12888 0.77262 1.95554C-0.174046 3.94221 0.17262 6.38221 1.81262 8.03554L7.39929 13.6089ZM16.4393 11.1955C18.4793 12.1422 21.346 11.4755 23.466 9.35554C26.0126 6.80887 26.506 3.15554 24.546 1.19554C22.5993 -0.751124 18.946 -0.271124 16.386 2.27554C14.266 4.39554 13.5993 7.26221 14.546 9.30221L2.46595 21.3822C2.21665 21.6315 2.07659 21.9696 2.07659 22.3222C2.07659 22.6748 2.21665 23.0129 2.46595 23.2622C2.71526 23.5115 3.05339 23.6516 3.40595 23.6516C3.75852 23.6516 4.09665 23.5115 4.34595 23.2622L12.5993 15.0355L20.8393 23.2755C20.9627 23.399 21.1093 23.4969 21.2706 23.5637C21.4318 23.6305 21.6047 23.6649 21.7793 23.6649C21.9539 23.6649 22.1267 23.6305 22.288 23.5637C22.4493 23.4969 22.5958 23.399 22.7193 23.2755C22.8427 23.1521 22.9407 23.0055 23.0075 22.8443C23.0743 22.683 23.1087 22.5101 23.1087 22.3355C23.1087 22.161 23.0743 21.9881 23.0075 21.8268C22.9407 21.6655 22.8427 21.519 22.7193 21.3955L14.4793 13.1555L16.4393 11.1955Z" fill="#7B8BF4"/>
</svg>
