<svg width="1440" height="1024" viewBox="0 0 1440 1024" fill="none" xmlns="http://www.w3.org/2000/svg">
<g clip-path="url(#clip0_2750_55111)">
<g clip-path="url(#clip1_2750_55111)">
<g filter="url(#filter0_f_2750_55111)">
<path d="M178 171.633C416.587 171.633 610 -21.7802 610 -260.367C610 -498.954 416.587 -692.367 178 -692.367C-60.587 -692.367 -254 -498.954 -254 -260.367C-254 -21.7802 -60.587 171.633 178 171.633Z" fill="#365F9D"/>
</g>
<g filter="url(#filter1_f_2750_55111)">
<path d="M1267.26 80.052C1480.73 80.052 1653.79 -93.0016 1653.79 -306.474C1653.79 -519.946 1480.73 -693 1267.26 -693C1053.79 -693 880.734 -519.946 880.734 -306.474C880.734 -93.0016 1053.79 80.052 1267.26 80.052Z" fill="#365F9D"/>
</g>
<g filter="url(#filter2_f_2750_55111)">
<path d="M772.947 129.947C986.419 129.947 1159.47 -43.1071 1159.47 -256.579C1159.47 -470.052 986.419 -643.105 772.947 -643.105C559.475 -643.105 386.421 -470.052 386.421 -256.579C386.421 -43.1071 559.475 129.947 772.947 129.947Z" fill="#06138B"/>
</g>
</g>
<g clip-path="url(#clip2_2750_55111)">
<g opacity="0.3" filter="url(#filter3_f_2750_55111)">
<path d="M588.999 -366.5L681.939 -333L527.74 817.008L264 709.5L588.999 -366.5Z" fill="url(#paint0_linear_2750_55111)"/>
</g>
<g opacity="0.86" filter="url(#filter4_f_2750_55111)">
<path d="M621.939 -273H681.939L861.158 988.4L479.981 935.966L621.939 -273Z" fill="url(#paint1_linear_2750_55111)" fill-opacity="0.5"/>
</g>
<g filter="url(#filter5_f_2750_55111)">
<path d="M674.438 -236L600.387 947.77" stroke="url(#paint2_linear_2750_55111)" stroke-width="4.23675"/>
</g>
<g filter="url(#filter6_f_2750_55111)">
<path d="M711.938 -269.5L768.216 1093.76" stroke="url(#paint3_linear_2750_55111)" stroke-width="4.23675"/>
</g>
<g filter="url(#filter7_f_2750_55111)">
<path d="M741.438 -299.5L875.938 489" stroke="url(#paint4_linear_2750_55111)" stroke-width="8.4735"/>
</g>
<g filter="url(#filter8_f_2750_55111)">
<path d="M714.334 -404L794.5 -351.5L1114.5 634L644.439 586L714.334 -404Z" fill="url(#paint5_linear_2750_55111)" fill-opacity="0.5"/>
</g>
</g>
</g>
<defs>
<filter id="filter0_f_2750_55111" x="-678.422" y="-1116.79" width="1712.84" height="1712.84" filterUnits="userSpaceOnUse" color-interpolation-filters="sRGB">
<feFlood flood-opacity="0" result="BackgroundImageFix"/>
<feBlend mode="normal" in="SourceGraphic" in2="BackgroundImageFix" result="shape"/>
<feGaussianBlur stdDeviation="212.211" result="effect1_foregroundBlur_2750_55111"/>
</filter>
<filter id="filter1_f_2750_55111" x="274.418" y="-1299.32" width="1985.68" height="1985.68" filterUnits="userSpaceOnUse" color-interpolation-filters="sRGB">
<feFlood flood-opacity="0" result="BackgroundImageFix"/>
<feBlend mode="normal" in="SourceGraphic" in2="BackgroundImageFix" result="shape"/>
<feGaussianBlur stdDeviation="303.158" result="effect1_foregroundBlur_2750_55111"/>
</filter>
<filter id="filter2_f_2750_55111" x="-219.895" y="-1249.42" width="1985.68" height="1985.68" filterUnits="userSpaceOnUse" color-interpolation-filters="sRGB">
<feFlood flood-opacity="0" result="BackgroundImageFix"/>
<feBlend mode="normal" in="SourceGraphic" in2="BackgroundImageFix" result="shape"/>
<feGaussianBlur stdDeviation="303.158" result="effect1_foregroundBlur_2750_55111"/>
</filter>
<filter id="filter3_f_2750_55111" x="238.58" y="-391.92" width="468.78" height="1234.35" filterUnits="userSpaceOnUse" color-interpolation-filters="sRGB">
<feFlood flood-opacity="0" result="BackgroundImageFix"/>
<feBlend mode="normal" in="SourceGraphic" in2="BackgroundImageFix" result="shape"/>
<feGaussianBlur stdDeviation="12.7102" result="effect1_foregroundBlur_2750_55111"/>
</filter>
<filter id="filter4_f_2750_55111" x="433.377" y="-319.604" width="474.385" height="1354.61" filterUnits="userSpaceOnUse" color-interpolation-filters="sRGB">
<feFlood flood-opacity="0" result="BackgroundImageFix"/>
<feBlend mode="normal" in="SourceGraphic" in2="BackgroundImageFix" result="shape"/>
<feGaussianBlur stdDeviation="23.3021" result="effect1_foregroundBlur_2750_55111"/>
</filter>
<filter id="filter5_f_2750_55111" x="564.378" y="-270.027" width="146.067" height="1251.82" filterUnits="userSpaceOnUse" color-interpolation-filters="sRGB">
<feFlood flood-opacity="0" result="BackgroundImageFix"/>
<feBlend mode="normal" in="SourceGraphic" in2="BackgroundImageFix" result="shape"/>
<feGaussianBlur stdDeviation="16.947" result="effect1_foregroundBlur_2750_55111"/>
</filter>
<filter id="filter6_f_2750_55111" x="680.164" y="-299.245" width="119.825" height="1422.75" filterUnits="userSpaceOnUse" color-interpolation-filters="sRGB">
<feFlood flood-opacity="0" result="BackgroundImageFix"/>
<feBlend mode="normal" in="SourceGraphic" in2="BackgroundImageFix" result="shape"/>
<feGaussianBlur stdDeviation="14.8286" result="effect1_foregroundBlur_2750_55111"/>
</filter>
<filter id="filter7_f_2750_55111" x="707.604" y="-329.87" width="202.168" height="849.24" filterUnits="userSpaceOnUse" color-interpolation-filters="sRGB">
<feFlood flood-opacity="0" result="BackgroundImageFix"/>
<feBlend mode="normal" in="SourceGraphic" in2="BackgroundImageFix" result="shape"/>
<feGaussianBlur stdDeviation="14.8286" result="effect1_foregroundBlur_2750_55111"/>
</filter>
<filter id="filter8_f_2750_55111" x="593.598" y="-454.841" width="571.743" height="1139.68" filterUnits="userSpaceOnUse" color-interpolation-filters="sRGB">
<feFlood flood-opacity="0" result="BackgroundImageFix"/>
<feBlend mode="normal" in="SourceGraphic" in2="BackgroundImageFix" result="shape"/>
<feGaussianBlur stdDeviation="25.4205" result="effect1_foregroundBlur_2750_55111"/>
</filter>
<linearGradient id="paint0_linear_2750_55111" x1="688.241" y1="-1039.9" x2="207.989" y2="990.12" gradientUnits="userSpaceOnUse">
<stop offset="0.214779" stop-color="#598CC7"/>
<stop offset="0.781583" stop-color="#53A2FF" stop-opacity="0"/>
</linearGradient>
<linearGradient id="paint1_linear_2750_55111" x1="755.072" y1="-1033.46" x2="619.136" y2="814.421" gradientUnits="userSpaceOnUse">
<stop offset="0.214779" stop-color="#598CC7"/>
<stop offset="1" stop-color="#326199" stop-opacity="0"/>
</linearGradient>
<linearGradient id="paint2_linear_2750_55111" x1="675.495" y1="-407.749" x2="593.707" y2="309.99" gradientUnits="userSpaceOnUse">
<stop stop-color="#598CC7"/>
<stop offset="1" stop-color="#81BBFF" stop-opacity="0"/>
</linearGradient>
<linearGradient id="paint3_linear_2750_55111" x1="696.808" y1="-407.561" x2="693.686" y2="558.085" gradientUnits="userSpaceOnUse">
<stop stop-color="#598CC7"/>
<stop offset="1" stop-color="#81BBFF" stop-opacity="0"/>
</linearGradient>
<linearGradient id="paint4_linear_2750_55111" x1="737.764" y1="-541.973" x2="775.171" y2="425.59" gradientUnits="userSpaceOnUse">
<stop stop-color="#598CC7"/>
<stop offset="1" stop-color="#81BBFF" stop-opacity="0"/>
</linearGradient>
<linearGradient id="paint5_linear_2750_55111" x1="942.384" y1="-879.583" x2="885.377" y2="1201.92" gradientUnits="userSpaceOnUse">
<stop offset="0.214779" stop-color="#598CC7"/>
<stop offset="0.781583" stop-color="#53A2FF" stop-opacity="0"/>
</linearGradient>
<clipPath id="clip0_2750_55111">
<rect width="1440" height="1024" fill="white"/>
</clipPath>
<clipPath id="clip1_2750_55111">
<rect width="1440" height="758" fill="white" transform="translate(0 -21)"/>
</clipPath>
<clipPath id="clip2_2750_55111">
<rect width="1440" height="1832" fill="white" transform="translate(0 -62)"/>
</clipPath>
</defs>
</svg>
