<svg width="33" height="33" viewBox="0 0 33 33" fill="none" xmlns="http://www.w3.org/2000/svg">
<path d="M31.698 0.48291H2.23884C1.53038 0.48291 0.958008 1.05528 0.958008 1.76374V31.2229C0.958008 31.9313 1.53038 32.5037 2.23884 32.5037H31.698C32.4064 32.5037 32.9788 31.9313 32.9788 31.2229V1.76374C32.9788 1.05528 32.4064 0.48291 31.698 0.48291ZM10.4562 27.7686H5.70509V12.4867H10.4562V27.7686ZM8.08263 10.3973C7.53798 10.3973 7.00557 10.2358 6.55271 9.93325C6.09985 9.63066 5.74689 9.20057 5.53846 8.69738C5.33004 8.1942 5.2755 7.6405 5.38176 7.10632C5.48801 6.57214 5.75029 6.08146 6.13541 5.69634C6.52053 5.31121 7.01121 5.04894 7.54539 4.94268C8.07958 4.83643 8.63327 4.89096 9.13646 5.09939C9.63965 5.30782 10.0697 5.66078 10.3723 6.11363C10.6749 6.56649 10.8364 7.09891 10.8364 7.64356C10.8324 9.16454 9.59962 10.3973 8.08263 10.3973ZM28.2437 27.7686H23.4966V20.3358C23.4966 18.5626 23.4646 16.2852 21.027 16.2852C18.5574 16.2852 18.1772 18.2144 18.1772 20.2077V27.7686H13.4341V12.4867H17.9891V14.5761H18.0531C18.6855 13.3753 20.2345 12.1065 22.548 12.1065C27.3591 12.1065 28.2437 15.2725 28.2437 19.3872V27.7686Z" fill="white"/>
</svg>
