<svg width="31" height="40" viewBox="0 0 31 40" fill="none" xmlns="http://www.w3.org/2000/svg">
<path d="M14.3883 38.8101C14.7127 39.0417 15.1014 39.1663 15.5 39.1663C15.8986 39.1663 16.2873 39.0417 16.6117 38.8101C17.1943 38.398 30.8889 28.5099 30.8333 16.1666C30.8333 7.71217 23.9544 0.833252 15.5 0.833252C7.04559 0.833252 0.166673 7.71217 0.166673 16.157C0.111089 28.5099 13.8057 38.398 14.3883 38.8101ZM15.5 4.66659C21.8423 4.66659 27 9.82434 27 16.1762C27.0403 24.6823 18.5897 32.3203 15.5 34.8253C12.4123 32.3183 3.95976 24.6785 4.00001 16.1666C4.00001 9.82434 9.15776 4.66659 15.5 4.66659Z" fill="white"/>
</svg>
