<svg width="89" height="24" viewBox="0 0 89 24" fill="none" xmlns="http://www.w3.org/2000/svg">
<path d="M10.1671 18.5L6.27909 11.852L2.53509 18.5H0.351094L5.19909 10.076L0.591094 2.18H2.96709L6.56709 8.396L10.0951 2.18H12.2551L7.64709 10.172L12.5191 18.5H10.1671ZM19.8835 18.74C18.9875 18.74 18.0595 18.556 17.0995 18.188V23.612H15.1315V6.62H17.0035V8.3C17.7395 7.596 18.4115 7.1 19.0195 6.812C19.6275 6.524 20.2515 6.38 20.8915 6.38C22.1555 6.38 23.1235 6.86 23.7955 7.82C24.4835 8.78 24.8275 10.132 24.8275 11.876V13.268C24.8275 14.932 24.4035 16.26 23.5555 17.252C22.7235 18.244 21.4995 18.74 19.8835 18.74ZM20.4115 8.228C19.9475 8.228 19.4675 8.348 18.9715 8.588C18.4755 8.828 17.8515 9.316 17.0995 10.052V16.388C17.5635 16.596 18.0115 16.748 18.4435 16.844C18.8755 16.924 19.2995 16.964 19.7155 16.964C20.8035 16.964 21.5875 16.636 22.0675 15.98C22.5475 15.308 22.7875 14.404 22.7875 13.268V11.876C22.7875 10.628 22.5875 9.708 22.1875 9.116C21.8035 8.524 21.2115 8.228 20.4115 8.228ZM28.4435 15.62V0.74H30.4115V15.524C30.4115 15.956 30.4755 16.284 30.6035 16.508C30.7475 16.716 31.0275 16.82 31.4435 16.82H31.8275V18.62H31.2755C30.2195 18.62 29.4835 18.34 29.0675 17.78C28.6515 17.22 28.4435 16.5 28.4435 15.62ZM44.2036 11.828V13.268C44.2036 14.964 43.7636 16.3 42.8836 17.276C42.0196 18.252 40.7796 18.74 39.1636 18.74C37.5636 18.74 36.3236 18.252 35.4436 17.276C34.5636 16.3 34.1236 14.964 34.1236 13.268V11.828C34.1236 10.164 34.5556 8.844 35.4196 7.868C36.2996 6.876 37.5476 6.38 39.1636 6.38C40.7796 6.38 42.0196 6.876 42.8836 7.868C43.7636 8.844 44.2036 10.164 44.2036 11.828ZM42.1636 11.828C42.1636 10.692 41.9076 9.804 41.3956 9.164C40.8836 8.508 40.1396 8.18 39.1636 8.18C38.2036 8.18 37.4596 8.508 36.9316 9.164C36.4196 9.804 36.1636 10.692 36.1636 11.828V13.268C36.1636 14.452 36.4196 15.364 36.9316 16.004C37.4596 16.644 38.2036 16.964 39.1636 16.964C40.1396 16.964 40.8836 16.644 41.3956 16.004C41.9076 15.364 42.1636 14.452 42.1636 13.268V11.828ZM54.02 8.348C53.3 8.348 52.596 8.476 51.908 8.732C51.236 8.988 50.516 9.476 49.748 10.196V18.5H47.78V6.62H49.652V8.54C50.468 7.74 51.212 7.18 51.884 6.86C52.572 6.54 53.284 6.38 54.02 6.38V8.348ZM65.2805 18.62C64.5445 18.62 63.9525 18.452 63.5045 18.116C63.0725 17.78 62.7685 17.364 62.5925 16.868C61.8085 17.556 61.0965 18.044 60.4565 18.332C59.8165 18.604 59.1765 18.74 58.5365 18.74C57.4965 18.74 56.7285 18.404 56.2325 17.732C55.7365 17.06 55.4885 16.236 55.4885 15.26C55.4885 14.604 55.6085 14.02 55.8485 13.508C56.0885 12.996 56.4965 12.596 57.0725 12.308C57.6485 12.004 58.4245 11.852 59.4005 11.852C59.8325 11.852 60.3045 11.884 60.8165 11.948C61.3285 11.996 61.8485 12.06 62.3765 12.14V10.532C62.3765 9.636 62.1765 9.028 61.7765 8.708C61.3925 8.372 60.8245 8.204 60.0725 8.204C59.0485 8.204 57.9045 8.484 56.6405 9.044L56.0165 7.412C56.7525 7.076 57.4565 6.82 58.1285 6.644C58.8005 6.468 59.4805 6.38 60.1685 6.38C61.2885 6.38 62.1445 6.564 62.7365 6.932C63.3285 7.3 63.7365 7.788 63.9605 8.396C64.1845 9.004 64.2965 9.668 64.2965 10.388V15.524C64.2965 15.892 64.3685 16.204 64.5125 16.46C64.6565 16.7 64.9445 16.82 65.3765 16.82H65.6405V18.62H65.2805ZM57.4325 15.236C57.4325 15.78 57.5605 16.22 57.8165 16.556C58.0725 16.892 58.4405 17.06 58.9205 17.06C59.3365 17.06 59.8165 16.94 60.3605 16.7C60.9045 16.444 61.5765 15.94 62.3765 15.188V13.676C61.2885 13.5 60.3285 13.412 59.4965 13.412C58.7605 13.412 58.2325 13.564 57.9125 13.868C57.5925 14.172 57.4325 14.628 57.4325 15.236ZM69.7244 18.5H67.5164V16.316H69.7244V18.5ZM75.1336 3.716H72.9256V1.508H75.1336V3.716ZM75.0136 18.5H73.0456V6.62H75.0136V18.5ZM88.6645 11.828V13.268C88.6645 14.964 88.2245 16.3 87.3445 17.276C86.4805 18.252 85.2405 18.74 83.6245 18.74C82.0245 18.74 80.7845 18.252 79.9045 17.276C79.0245 16.3 78.5845 14.964 78.5845 13.268V11.828C78.5845 10.164 79.0165 8.844 79.8805 7.868C80.7605 6.876 82.0085 6.38 83.6245 6.38C85.2405 6.38 86.4805 6.876 87.3445 7.868C88.2245 8.844 88.6645 10.164 88.6645 11.828ZM86.6245 11.828C86.6245 10.692 86.3685 9.804 85.8565 9.164C85.3445 8.508 84.6005 8.18 83.6245 8.18C82.6645 8.18 81.9205 8.508 81.3925 9.164C80.8805 9.804 80.6245 10.692 80.6245 11.828V13.268C80.6245 14.452 80.8805 15.364 81.3925 16.004C81.9205 16.644 82.6645 16.964 83.6245 16.964C84.6005 16.964 85.3445 16.644 85.8565 16.004C86.3685 15.364 86.6245 14.452 86.6245 13.268V11.828Z" fill="#F1F3F8"/>
</svg>
