<svg width="18" height="18" viewBox="0 0 18 18" fill="none" xmlns="http://www.w3.org/2000/svg">
<path fill-rule="evenodd" clip-rule="evenodd" d="M3.00275 9.33709C3.00275 8.94428 3.32118 8.62585 3.71398 8.62585H15.0937C15.4865 8.62585 15.8049 8.94428 15.8049 9.33709C15.8049 9.72989 15.4865 10.0483 15.0937 10.0483H3.71398C3.32118 10.0483 3.00275 9.72989 3.00275 9.33709Z" fill="#D3E7FF"/>
<path fill-rule="evenodd" clip-rule="evenodd" d="M3.00275 5.06963C3.00275 4.67683 3.32118 4.3584 3.71398 4.3584H15.0937C15.4865 4.3584 15.8049 4.67683 15.8049 5.06963C15.8049 5.46243 15.4865 5.78086 15.0937 5.78086H3.71398C3.32118 5.78086 3.00275 5.46243 3.00275 5.06963Z" fill="#D3E7FF"/>
<path fill-rule="evenodd" clip-rule="evenodd" d="M3.00275 13.6045C3.00275 13.2117 3.32118 12.8933 3.71398 12.8933H15.0937C15.4865 12.8933 15.8049 13.2117 15.8049 13.6045C15.8049 13.9973 15.4865 14.3158 15.0937 14.3158H3.71398C3.32118 14.3158 3.00275 13.9973 3.00275 13.6045Z" fill="#D3E7FF"/>
</svg>
