<svg width="18" height="18" viewBox="0 0 18 18" fill="none" xmlns="http://www.w3.org/2000/svg">
<path fill-rule="evenodd" clip-rule="evenodd" d="M7.10681 9.33702C7.10681 8.55141 7.74367 7.91455 8.52928 7.91455C9.31488 7.91455 9.95174 8.55141 9.95174 9.33702C9.95174 10.1226 9.31488 10.7595 8.52928 10.7595C7.74367 10.7595 7.10681 10.1226 7.10681 9.33702Z" fill="#D3E7FF"/>
<path fill-rule="evenodd" clip-rule="evenodd" d="M12.0856 9.33702C12.0856 8.55141 12.7224 7.91455 13.508 7.91455C14.2936 7.91455 14.9305 8.55141 14.9305 9.33702C14.9305 10.1226 14.2936 10.7595 13.508 10.7595C12.7224 10.7595 12.0856 10.1226 12.0856 9.33702Z" fill="#D3E7FF"/>
<path fill-rule="evenodd" clip-rule="evenodd" d="M2.12817 9.33702C2.12817 8.55141 2.76503 7.91455 3.55064 7.91455C4.33625 7.91455 4.97311 8.55141 4.97311 9.33702C4.97311 10.1226 4.33625 10.7595 3.55064 10.7595C2.76503 10.7595 2.12817 10.1226 2.12817 9.33702Z" fill="#D3E7FF"/>
</svg>
