<svg width="34" height="29" viewBox="0 0 34 29" fill="none" xmlns="http://www.w3.org/2000/svg">
<path d="M33.645 4.1787C32.4202 4.70704 31.0873 5.08729 29.7144 5.23539C31.1398 4.38858 32.2072 3.05077 32.7164 1.47295C31.3788 2.26862 29.9136 2.82656 28.3855 3.12202C27.7469 2.43928 26.9745 1.89538 26.1165 1.52421C25.2585 1.15304 24.3332 0.962551 23.3983 0.964616C19.6159 0.964616 16.5739 4.03061 16.5739 7.79305C16.5739 8.32139 16.6379 8.84973 16.742 9.35806C11.0783 9.06187 6.02705 6.35611 2.66887 2.21343C2.05697 3.25857 1.73632 4.44858 1.74026 5.65966C1.74026 8.0292 2.94505 10.1186 4.78224 11.3474C3.69955 11.3047 2.64222 11.0071 1.69624 10.4788V10.5628C1.69624 13.881 4.04176 16.6308 7.16779 17.2632C6.58084 17.4157 5.97704 17.4936 5.37062 17.4953C4.92633 17.4953 4.50606 17.4513 4.08178 17.3913C4.94634 20.097 7.46398 22.0623 10.4619 22.1263C8.1164 23.9635 5.17849 25.0442 1.98843 25.0442C1.41605 25.0442 0.887711 25.0242 0.339355 24.9602C3.36532 26.9014 6.95565 28.0222 10.8222 28.0222C23.3743 28.0222 30.2428 17.6234 30.2428 8.59757C30.2428 8.30138 30.2428 8.00518 30.2227 7.70899C31.5516 6.73636 32.7164 5.53158 33.645 4.1787Z" fill="white"/>
</svg>
