<svg width="61" height="61" viewBox="0 0 61 61" fill="none" xmlns="http://www.w3.org/2000/svg">
<g clip-path="url(#clip0_7_1089)">
<path d="M13.1568 0.938477H46.8768C54.134 0.938477 60.0168 6.82129 60.0168 14.0785V47.7985C60.0168 55.0557 54.134 60.9385 46.8768 60.9385H13.1568C5.89966 60.9385 0.0168457 55.0557 0.0168457 47.7985V14.0785C0.0168457 6.82129 5.89966 0.938477 13.1568 0.938477Z" fill="url(#paint0_linear_7_1089)"/>
<path d="M19.2454 44.4877L19.251 44.4896L17.1996 48.0427C16.4507 49.3397 14.7923 49.7841 13.4953 49.0353C12.1985 48.2864 11.7538 46.628 12.5027 45.331L14.0139 42.7135L14.159 42.4622C14.418 42.09 15.0571 41.4474 16.3356 41.5683C16.3356 41.5683 19.3443 41.8948 19.5621 43.4586C19.5621 43.4586 19.5916 43.973 19.2454 44.4877ZM48.3414 35.4127H41.9444C41.5087 35.3834 41.3186 35.2278 41.2436 35.1373L41.2389 35.1291L34.3912 23.2683L34.3823 23.2742L33.9717 22.6854C33.2985 21.6561 32.2298 24.2886 32.2298 24.2886C30.9536 27.222 32.411 30.5569 32.9189 31.565L42.4303 48.0392C43.1789 49.336 44.8373 49.7806 46.1346 49.0315C47.4314 48.2827 47.876 46.6243 47.1269 45.3272L44.7487 41.2079C44.7025 41.108 44.6224 40.8371 45.1101 40.8359H48.3414C49.8391 40.8359 51.0532 39.6218 51.0532 38.1242C51.0532 36.6265 49.8391 35.4125 48.3414 35.4125V35.4127ZM35.9163 39.0989C35.9163 39.0989 36.2578 40.8359 34.9366 40.8359H11.2884C9.79072 40.8359 8.57666 39.6218 8.57666 38.1242C8.57666 36.6265 9.79072 35.4125 11.2884 35.4125H17.3681C18.3496 35.3557 18.5821 34.789 18.5821 34.789L18.5878 34.7918L26.5237 21.0462L26.5214 21.0457C26.666 20.7802 26.5455 20.5292 26.5246 20.4896L23.9036 15.95C23.1548 14.6532 23.5992 12.9945 24.8962 12.2459C26.1932 11.4971 27.8517 11.9412 28.6005 13.2382L29.816 15.3436L31.0293 13.242C31.7782 11.9452 33.4366 11.5006 34.7336 12.2497C36.0307 12.9985 36.475 14.6567 35.7262 15.9537L24.6829 35.0811C24.6346 35.1975 24.6199 35.3804 24.9792 35.4125H31.5801L31.5815 35.4769C31.5815 35.4769 35.3967 35.5362 35.9163 39.0989Z" fill="white"/>
</g>
<defs>
<linearGradient id="paint0_linear_7_1089" x1="30.0168" y1="0.938477" x2="30.0168" y2="60.9385" gradientUnits="userSpaceOnUse">
<stop stop-color="#17C9FB"/>
<stop offset="1" stop-color="#1A74E8"/>
</linearGradient>
<clipPath id="clip0_7_1089">
<rect width="60" height="60" fill="white" transform="translate(0.0168457 0.938477)"/>
</clipPath>
</defs>
</svg>
