<svg width="61" height="62" viewBox="0 0 61 62" fill="none" xmlns="http://www.w3.org/2000/svg">
<g clip-path="url(#clip0_7_1092)">
<path opacity="0.5" d="M29.9448 9.22762V26.4729L44.909 17.8325V0.586914L29.9448 9.22762Z" fill="#13A049"/>
<path opacity="0.5" d="M29.9449 9.22762L14.981 0.586914V17.8683L29.9449 26.509V9.22762Z" fill="#A2CC39"/>
<path opacity="0.9" d="M44.909 0.586914L29.9449 9.22762L14.981 0.586914L0.0168457 9.22762L29.9449 26.509L59.8551 9.22762L44.909 0.586914Z" fill="url(#paint0_linear_7_1092)"/>
<path d="M29.9449 26.5091L0.0168457 9.22766V26.5091L14.981 35.1498V52.4134L29.9449 61.0541L44.909 52.4134V35.1498L59.8551 26.5091V9.22766L29.9449 26.5091Z" fill="url(#paint1_linear_7_1092)"/>
<path d="M29.9448 26.5091V61.0541L44.909 52.4134V35.1498L59.855 26.5091V9.22766L29.9448 26.5091Z" fill="url(#paint2_linear_7_1092)"/>
<path opacity="0.05" d="M29.9448 43.7726V61.054L44.909 52.4133L29.9448 43.7726Z" fill="#231F20"/>
<path opacity="0.1" d="M29.9449 61.0899V43.8085L14.981 52.4492L29.9449 61.0899Z" fill="#231F20"/>
<path opacity="0.05" d="M14.981 17.8683L0.0168457 26.509L14.981 35.1497L29.9449 26.509L14.981 17.8683Z" fill="#231F20"/>
<path opacity="0.05" d="M44.909 17.8683L29.9448 26.509L44.909 35.1497L59.855 26.509L44.909 17.8683Z" fill="#231F20"/>
</g>
<defs>
<linearGradient id="paint0_linear_7_1092" x1="59.8623" y1="13.5456" x2="0.0168457" y2="13.5456" gradientUnits="userSpaceOnUse">
<stop stop-color="#37BDA6"/>
<stop offset="1" stop-color="#8AD3B8"/>
</linearGradient>
<linearGradient id="paint1_linear_7_1092" x1="59.8623" y1="35.1398" x2="0.0168457" y2="35.1398" gradientUnits="userSpaceOnUse">
<stop offset="0.5" stop-color="#4BB6AD"/>
<stop offset="1" stop-color="#78BBC1"/>
</linearGradient>
<linearGradient id="paint2_linear_7_1092" x1="29.9394" y1="35.1398" x2="59.8619" y2="35.1398" gradientUnits="userSpaceOnUse">
<stop stop-color="#4379A7"/>
<stop offset="1" stop-color="#7CC9B8"/>
</linearGradient>
<clipPath id="clip0_7_1092">
<rect width="60" height="60.7031" fill="white" transform="translate(0.0168457 0.586914)"/>
</clipPath>
</defs>
</svg>
