<svg width="61" height="72" viewBox="0 0 61 72" fill="none" xmlns="http://www.w3.org/2000/svg">
<g clip-path="url(#clip0_7_1102)">
<path d="M18.3893 0.866184C18.0458 0.868396 17.7083 0.956114 17.4072 1.12142C16.4186 1.66939 16.0561 2.93946 16.6038 3.92736L18.8358 7.95767C13.4583 11.2846 9.89505 16.9677 9.89505 23.4541V24.6592C8.86216 23.471 7.34411 22.7207 5.64794 22.7207C2.54013 22.7207 0.0168457 25.244 0.0168457 28.3516V45.6974C0.0168457 48.8048 2.54036 51.3283 5.64794 51.3283C7.34411 51.3283 8.86216 50.5778 9.89481 49.3896V51.8193C9.89481 55.0952 12.5754 57.7755 15.8512 57.7755H17.3625V65.4918C17.3625 68.5996 19.886 71.1229 22.9936 71.1229C26.1011 71.1229 28.6244 68.5994 28.6244 65.4918V57.7755H31.2391V65.4918C31.2391 68.5996 33.7626 71.1229 36.8702 71.1229C39.9778 71.1229 42.5011 68.5994 42.5011 65.4918V57.7755H44.0125C47.2882 57.7755 49.9687 55.0952 49.9687 51.8193V49.3896C51.0014 50.5778 52.5197 51.3283 54.2158 51.3283C57.3234 51.3283 59.8467 48.8048 59.8467 45.6974V28.3516C59.8467 25.244 57.3234 22.7207 54.2158 22.7207C52.5197 22.7207 51.0014 23.471 49.9687 24.6592V23.658V23.6006C49.9692 23.5396 49.9687 23.4909 49.9687 23.4541C49.9687 16.9689 46.3973 11.2914 41.0217 7.96423L43.26 3.92736C43.8075 2.93946 43.4451 1.66939 42.4565 1.12142C42.1555 0.956114 41.818 0.868396 41.4745 0.866184C40.7444 0.859152 40.0279 1.244 39.6506 1.92486L37.3101 6.15298C35.0217 5.30853 32.5317 4.84564 29.932 4.84564C27.3347 4.84564 24.84 5.30361 22.5534 6.14642L20.2132 1.92486C19.8356 1.244 19.1193 0.859621 18.3893 0.866184Z" fill="white"/>
<path d="M5.64803 24.1874C3.32912 24.1874 1.48389 26.0326 1.48389 28.3515V45.6974C1.48389 48.0163 3.32912 49.8615 5.64803 49.8615C7.96693 49.8615 9.8124 48.0163 9.8124 45.6974V28.3515C9.8124 26.0326 7.96693 24.1874 5.64803 24.1874ZM54.2162 24.1874C51.897 24.1874 50.0518 26.0326 50.0518 28.3515V45.6974C50.0518 48.0163 51.897 49.8615 54.2162 49.8615C56.5351 49.8615 58.3803 48.0163 58.3803 45.6974V28.3515C58.3803 26.0326 56.5351 24.1874 54.2162 24.1874Z" fill="#A4C639"/>
<path d="M22.994 43.9818C20.6751 43.9818 18.8296 45.827 18.8296 48.1462V65.4918C18.8296 67.8107 20.6751 69.656 22.994 69.656C25.3129 69.656 27.1581 67.8107 27.1581 65.4918V48.1462C27.1581 45.827 25.3129 43.9818 22.994 43.9818ZM36.8706 43.9818C34.5515 43.9818 32.7062 45.827 32.7062 48.1462V65.4918C32.7062 67.8107 34.5515 69.656 36.8706 69.656C39.1895 69.656 41.0347 67.8107 41.0347 65.4918V48.1462C41.0347 45.827 39.1895 43.9818 36.8706 43.9818Z" fill="#A4C639"/>
<path d="M18.4017 2.33309C18.3032 2.33428 18.2067 2.36057 18.1212 2.4095C17.8242 2.57403 17.7267 2.91528 17.8915 3.21293L20.8252 8.51239C15.1814 11.4491 11.3691 17.0298 11.3616 23.4348H48.5018C48.4941 17.0298 44.682 11.4489 39.0382 8.51239L41.9717 3.21317C42.1367 2.91551 42.0389 2.57403 41.742 2.4095C41.6565 2.36055 41.5599 2.33425 41.4614 2.33309C41.2505 2.33075 41.051 2.43621 40.9385 2.63918L37.9667 7.99582C35.5357 6.9177 32.809 6.31231 29.9316 6.31231C27.0542 6.31231 24.3277 6.91746 21.8965 7.99582L18.9246 2.63918C18.8739 2.54515 18.7984 2.46687 18.7062 2.41289C18.614 2.3589 18.5088 2.3313 18.402 2.33309H18.4017ZM11.3616 24.9015V51.8195C11.3603 52.4094 11.4756 52.9937 11.7007 53.539C11.9259 54.0842 12.2566 54.5796 12.6737 54.9968C13.0908 55.4139 13.5863 55.7445 14.1315 55.9696C14.6768 56.1948 15.2611 56.31 15.851 56.3087H44.0124C44.6023 56.31 45.1867 56.1948 45.7319 55.9696C46.2772 55.7444 46.7726 55.4138 47.1898 54.9967C47.6069 54.5795 47.9376 54.0841 48.1627 53.5388C48.3879 52.9936 48.5031 52.4092 48.5018 51.8193V24.9018H11.3616V24.9015Z" fill="#A4C639"/>
<path d="M21.361 13.5376C20.5132 13.5376 19.8113 14.2393 19.8113 15.0871C19.8113 15.935 20.5132 16.6367 21.361 16.6367C22.2089 16.6367 22.9107 15.935 22.9107 15.0871C22.9107 14.2393 22.2089 13.5376 21.361 13.5376ZM38.5027 13.5376C37.6547 13.5376 36.953 14.2393 36.953 15.0871C36.953 15.935 37.6547 16.6367 38.5027 16.6367C39.3504 16.6367 40.0524 15.935 40.0524 15.0871C40.0524 14.2393 39.3504 13.5376 38.5027 13.5376Z" fill="white"/>
</g>
<defs>
<clipPath id="clip0_7_1102">
<rect width="60" height="70.5469" fill="white" transform="translate(0.0168457 0.665039)"/>
</clipPath>
</defs>
</svg>
