<svg width="73" height="61" viewBox="0 0 73 61" fill="none" xmlns="http://www.w3.org/2000/svg">
<g clip-path="url(#clip0_7_1108)">
<path d="M36.1578 0.938477C16.8226 0.938477 1.67445 25.5385 0.241211 46.3159C6.30882 56.8464 20.9406 60.8047 36.1584 60.8047C51.375 60.8047 66.0077 56.8464 72.0722 46.3157C70.6387 25.5385 55.4925 0.938477 36.1581 0.938477" fill="#B6DEFF"/>
<path d="M67.0195 41.3667C67.0195 41.3667 62.7491 32.134 58.4085 26.7476C54.0649 21.3588 48.7604 15.4912 45.624 15.4912C42.4894 15.4912 33.7266 31.0061 29.7066 31.0061C25.6857 31.0061 23.5961 23.9729 18.6528 23.9729C13.7074 23.9729 5.85051 40.9332 5.85051 40.9332L5.31812 43.8084C5.31812 43.8084 8.04769 55.9101 36.6037 55.9101C65.1609 55.9101 67.4432 44.007 67.4432 44.007L67.0198 41.3664" fill="#66CC66"/>
<path d="M30.1543 37.6272C25.7194 37.6272 23.4458 33.2514 22.2132 30.5503C21.1047 28.117 20.9129 24.2754 17.7678 24.1677C18.0768 24.0452 18.3743 23.9728 18.6532 23.9728C23.5966 23.9728 25.6861 31.0061 29.707 31.0061C33.727 31.0061 42.4898 15.4908 45.6244 15.4908C46.2151 15.4908 46.8805 15.6993 47.6025 16.07C47.0684 15.9996 46.3836 16.0486 45.856 16.5779C44.8427 17.5914 35.6447 37.6272 30.1543 37.6272Z" fill="#17AD49"/>
</g>
<defs>
<clipPath id="clip0_7_1108">
<rect width="72.1127" height="60" fill="white" transform="translate(0.0168457 0.938477)"/>
</clipPath>
</defs>
</svg>
