<svg width="61" height="66" viewBox="0 0 61 66" fill="none" xmlns="http://www.w3.org/2000/svg">
<g clip-path="url(#clip0_7_1112)">
<path d="M55.9198 52.8892C55.4675 56.2511 53.205 59.1601 50.0377 60.4529C48.4861 61.0986 46.8057 61.2932 45.1247 61.0986C43.5089 60.905 41.8927 60.3878 40.2122 59.4191C37.8849 58.1249 35.5578 56.1219 32.843 53.1482C37.1096 47.9122 39.6945 43.1286 40.6646 38.863C41.1172 36.8589 41.1816 35.0488 40.988 33.3679C40.7297 31.7521 40.1478 30.2647 39.2424 28.9721C37.2385 26.0636 33.8775 24.3826 30.1282 24.3826C26.379 24.3826 23.0178 26.1282 21.0139 28.9721C20.1085 30.265 19.5275 31.7521 19.2685 33.3679C19.0102 35.0488 19.0747 36.9233 19.5919 38.8632C20.5613 43.1284 23.2114 47.9769 27.4135 53.2119C24.7632 56.1864 22.3714 58.19 20.044 59.4831C18.3636 60.4529 16.7473 60.9702 15.1315 61.1633C13.4658 61.3494 11.7799 61.1278 10.2188 60.5176C7.05122 59.2248 4.78926 56.3148 4.33645 52.9536C4.14286 51.3381 4.272 49.7223 4.9184 47.9122C5.112 47.2654 5.43567 46.6201 5.7584 45.8439C6.21122 44.81 6.72848 43.7104 7.24505 42.6111L7.3102 42.4827C11.7699 32.8506 16.5537 23.0254 21.5311 13.4589L21.725 13.0703C22.2422 12.1016 22.7588 11.0678 23.2765 10.0977C23.7933 9.06316 24.375 8.09332 25.0859 7.25238C26.4434 5.70082 28.2535 4.86059 30.2574 4.86059C32.2613 4.86059 34.0711 5.70082 35.4286 7.25262C36.1397 8.09332 36.7215 9.06316 37.2387 10.0979C37.756 11.0678 38.2725 12.1016 38.7898 13.0703L38.9843 13.4589C43.8966 23.0898 48.6804 32.915 53.1406 42.5471V42.6111C53.6579 43.6457 54.11 44.81 54.6272 45.8439C54.9507 46.6201 55.2736 47.2651 55.4672 47.9122C55.9845 49.5927 56.1783 51.2094 55.92 52.8892H55.9198ZM30.1282 49.8507C26.6379 45.4557 24.375 41.3183 23.5995 37.8287C23.2768 36.3416 23.2114 35.0488 23.4059 33.8851C23.5348 32.8506 23.9232 31.9452 24.4395 31.1689C25.6679 29.4252 27.7362 28.3243 30.1282 28.3243C32.52 28.3243 34.6531 29.3596 35.8165 31.1689C36.3333 31.9452 36.7214 32.8506 36.8506 33.8851C37.0444 35.0488 36.9797 36.4061 36.6568 37.8287C35.8812 41.2543 33.6186 45.3913 30.1282 49.8507ZM59.2812 46.4898C58.9582 45.714 58.6348 44.874 58.3118 44.1629C57.7946 43 57.2773 41.9003 56.8247 40.8657L56.76 40.8018C52.3004 31.105 47.5165 21.2797 42.4744 11.585L42.2808 11.196C41.7636 10.2264 41.2463 9.19184 40.7297 8.15777C40.0829 6.99363 39.4362 5.76668 38.4024 4.6023C36.3331 2.01668 33.3603 0.594727 30.1925 0.594727C26.9604 0.594727 24.0518 2.01668 21.9183 4.47363C20.9492 5.63684 20.2381 6.86496 19.5917 8.02934C19.0744 9.06316 18.5572 10.0977 18.0401 11.0678L17.8463 11.4545C12.8693 21.1506 8.02106 30.9765 3.56067 40.6726L3.49622 40.8018C3.0434 41.8356 2.52614 42.9341 2.00887 44.0985C1.66306 44.8646 1.33988 45.6407 1.03973 46.4258C0.19903 48.8169 -0.0592515 51.0798 0.263717 53.4064C0.97528 58.2547 4.20731 62.3277 8.66747 64.1371C10.3477 64.8486 12.0931 65.1716 13.9034 65.1716C14.4204 65.1716 15.0668 65.1069 15.5841 65.0418C17.7169 64.7828 19.9147 64.0731 22.0475 62.8443C24.6982 61.3576 27.2194 59.2248 30.0633 56.1219C32.9072 59.2248 35.4931 61.3578 38.0787 62.8443C40.2122 64.0731 42.4097 64.7828 44.5428 65.0418C45.06 65.1069 45.7065 65.1716 46.2235 65.1716C48.0336 65.1716 49.8432 64.8486 51.4594 64.1371C55.9843 62.3277 59.1516 58.1903 59.8627 53.4064C60.38 51.1436 60.121 48.8823 59.281 46.4896L59.2812 46.4898Z" fill="#E0565B"/>
</g>
<defs>
<clipPath id="clip0_7_1112">
<rect width="60" height="64.6875" fill="white" transform="translate(0.129395 0.594727)"/>
</clipPath>
</defs>
</svg>
