<svg width="150" height="61" viewBox="0 0 150 61" fill="none" xmlns="http://www.w3.org/2000/svg">
<g clip-path="url(#clip0_7_1114)">
<path d="M0.129395 0.938477V5.03955H29.2982V0.938477H0.129395ZM33.4309 0.938477V5.03955H74.9977C74.9977 5.03955 70.7517 0.938477 65.1284 0.938477H33.4309ZM83.1518 0.938477V5.03955H108.299L106.806 0.938477H83.1518ZM126.328 0.938477L124.836 5.03955H149.755V0.938477H126.328ZM0.129395 8.91409V13.0152H29.2982V8.91409H0.129395ZM33.4309 8.91994V13.0152H79.8211C79.8211 13.0152 79.2793 9.85887 78.3343 8.91994H33.4309ZM83.1518 8.91994V13.0152H111.056L109.675 8.91994H83.1518ZM123.343 8.91994L121.962 13.0152H149.755V8.91994H123.343ZM8.51183 16.8897V20.996H21.144V16.8897H8.51183ZM41.8133 16.8897V20.996H54.4455V16.8897H41.8133ZM66.7323 16.8897V20.996H79.3645C79.3645 20.996 80.1665 18.8273 80.1665 16.8894H66.7323V16.8897ZM91.5343 16.8897V20.996H113.93L112.438 16.8894H91.5343V16.8897ZM120.592 16.8897L119.093 20.9963H141.601V16.8897H120.592ZM8.51183 24.8712V28.9716H21.144V24.8712H8.51183ZM41.8133 24.8712V28.9716H74.0787C74.0787 28.9716 76.7778 26.8673 77.6377 24.8706H41.8133V24.8712ZM91.5343 24.8712V28.9716H104.166V26.6887L104.968 28.9716H128.108L128.968 26.6887V28.9716H141.601V24.8712H117.887L116.629 28.345L115.365 24.8712H91.5343ZM8.51183 32.8462V36.9473H21.144V32.8462H8.51183ZM41.8133 32.8462V36.9473H77.6377C76.7775 34.957 74.0787 32.8462 74.0787 32.8462H41.8133ZM91.5343 32.8462V36.9473H104.166V32.8462H91.5343ZM106.461 32.8462L107.989 36.9473H125.339L126.791 32.8462H106.461ZM128.968 32.8462V36.9473H141.601V32.8462H128.968ZM8.51183 40.8218V44.9229H21.144V40.8218H8.51183ZM41.8133 40.8218V44.9229H54.4455V40.8218H41.8133ZM66.7323 40.8218V44.9229H80.1665C80.1665 42.9874 79.3645 40.8218 79.3645 40.8218H66.7323ZM91.5343 40.8218V44.9229H104.166V40.8218H91.5343ZM109.329 40.8218L110.81 44.9229H122.442L123.934 40.8218H109.329ZM128.968 40.8218V44.9229H141.601V40.8218H128.968ZM0.357687 48.7977V52.9043H29.5265V48.7974H0.357687V48.7977ZM33.4309 48.7977V52.9043H78.3343C79.2793 51.9639 79.8211 48.7974 79.8211 48.7974H33.4309V48.7977ZM83.3801 48.7977V52.9043H104.166V48.7974H83.3801V48.7977ZM112.204 48.7977L113.725 52.9043H119.644L121.072 48.7974H112.204V48.7977ZM128.968 48.7977V52.9043H149.983V48.7974H128.968V48.7977ZM0.357687 56.7789V60.8799H29.5265V56.7789H0.357687ZM33.4309 56.7789V60.8738H65.1284C70.7517 60.8738 74.9977 56.7786 74.9977 56.7786H33.4309V56.7789ZM83.3801 56.7789V60.8799H104.166V56.7789H83.3801ZM115.089 56.7789L116.553 60.8679L116.805 60.8738L118.291 56.7786H115.089V56.7789ZM128.968 56.7789V60.8799H149.983V56.7789H128.968Z" fill="#1F70C1"/>
</g>
<defs>
<clipPath id="clip0_7_1114">
<rect width="149.854" height="60" fill="white" transform="translate(0.129395 0.938477)"/>
</clipPath>
</defs>
</svg>
